<svg width="22" height="30" viewBox="0 0 22 30" fill="none" xmlns="http://www.w3.org/2000/svg">
<path d="M10.875 0C9.28639 0 7.76285 0.632141 6.63954 1.75736C5.51622 2.88258 4.88515 4.4087 4.88515 6V7H4.05656C3.2161 6.99911 2.40768 7.32297 1.7996 7.90413C1.19152 8.4853 0.830642 9.279 0.79209 10.12L0.00342633 26.57C-0.0167909 27.0123 0.0526188 27.4542 0.207472 27.869C0.362324 28.2837 0.599413 28.6628 0.904447 28.9833C1.20948 29.3038 1.57614 29.5591 1.98233 29.7338C2.38852 29.9086 2.82583 29.9991 3.26789 30H18.4821C18.9242 29.9991 19.3615 29.9086 19.7677 29.7338C20.1739 29.5591 20.5405 29.3038 20.8456 28.9833C21.1506 28.6628 21.3877 28.2837 21.5425 27.869C21.6974 27.4542 21.7668 27.0123 21.7466 26.57L20.9579 10.12C20.9194 9.279 20.5585 8.4853 19.9504 7.90413C19.3423 7.32297 18.5339 6.99911 17.6934 7H16.8648V6C16.8648 4.4087 16.2338 2.88258 15.1105 1.75736C13.9871 0.632141 12.4636 0 10.875 0ZM6.88177 6C6.88177 4.93913 7.30248 3.92172 8.05136 3.17157C8.80023 2.42143 9.81593 2 10.875 2C11.9341 2 12.9498 2.42143 13.6986 3.17157C14.4475 3.92172 14.8682 4.93913 14.8682 6V7H6.88177V6ZM18.9613 10.21L19.75 26.67C19.7562 26.842 19.7286 27.0135 19.6686 27.1748C19.6087 27.3361 19.5176 27.484 19.4006 27.61C19.281 27.7329 19.1383 27.8307 18.9806 27.8977C18.8229 27.9647 18.6534 27.9994 18.4821 28H3.26789C3.0966 27.9994 2.92715 27.9647 2.76944 27.8977C2.61174 27.8307 2.46895 27.7329 2.34945 27.61C2.23242 27.484 2.14133 27.3361 2.08137 27.1748C2.02142 27.0135 1.99378 26.842 2.00004 26.67L2.78871 10.21C2.80411 9.88368 2.94446 9.57586 3.18058 9.35052C3.4167 9.12517 3.73043 8.99964 4.05656 9H17.6934C18.0196 8.99964 18.3333 9.12517 18.5694 9.35052C18.8055 9.57586 18.9459 9.88368 18.9613 10.21Z" fill="#4F4F4F"/>
</svg>
